<svg width="16" height="15" viewBox="0 0 16 15" fill="none" xmlns="http://www.w3.org/2000/svg">
<path d="M2.19043 14.7471C2.55957 14.7471 2.86719 14.5977 3.28027 14.3867L14.3984 8.99023C15.1807 8.6123 15.4795 8.20801 15.4795 7.66309C15.4795 7.11816 15.1807 6.72266 14.3984 6.33594L3.28027 0.939453C2.8584 0.737305 2.55957 0.579102 2.18164 0.579102C1.46973 0.579102 0.96875 1.12402 0.96875 1.98535L0.977539 13.3408C0.977539 14.2109 1.47852 14.7471 2.19043 14.7471ZM2.81445 12.6025C2.77051 12.6025 2.73535 12.5586 2.73535 12.4971V2.8291C2.73535 2.75879 2.77051 2.72363 2.81445 2.72363C2.84961 2.72363 2.88477 2.74121 2.91992 2.76758L13.001 7.56641C13.0361 7.59277 13.0713 7.61914 13.0713 7.66309C13.0713 7.70703 13.0361 7.74219 13.001 7.75977L2.91992 12.5586C2.88477 12.585 2.84961 12.6025 2.81445 12.6025Z" fill="#1C1C1E"/>
</svg>
