<svg width="18" height="17" viewBox="0 0 18 17" fill="none" xmlns="http://www.w3.org/2000/svg">
<path d="M3.67383 16.8721H14.3174C16.2158 16.8721 17.2002 15.8877 17.2002 14.0156V3.31934C17.2002 1.43848 16.2158 0.462891 14.3174 0.462891H3.67383C1.77539 0.462891 0.791016 1.43848 0.791016 3.31934V14.0156C0.791016 15.8965 1.77539 16.8721 3.67383 16.8721ZM3.7793 15.1494C2.96191 15.1494 2.51367 14.7188 2.51367 13.8662V3.45996C2.51367 2.60742 2.96191 2.18555 3.7793 2.18555H14.2119C15.0205 2.18555 15.4775 2.60742 15.4775 3.45996V13.8662C15.4775 14.7188 15.0205 15.1494 14.2119 15.1494H3.7793ZM5.73047 13.3301C5.98535 13.3301 6.17871 13.1279 6.17871 12.873V10.3682C6.33691 10.2979 6.6709 10.21 7.1543 10.21C8.68359 10.21 9.65039 10.9658 11.1621 10.9658C11.8125 10.9658 12.0938 10.8955 12.4365 10.7461C12.8232 10.5703 12.999 10.2979 12.999 9.87598V5.61328C12.999 5.32324 12.832 5.12988 12.4541 5.12988C12.1904 5.12988 11.8125 5.31445 11.1182 5.31445C9.66797 5.31445 8.68359 4.54102 7.11035 4.54102C6.44238 4.54102 6.16113 4.62012 5.83594 4.76074C5.4668 4.92773 5.27344 5.21777 5.27344 5.62207V12.873C5.27344 13.1191 5.48438 13.3301 5.73047 13.3301Z" fill="#1C1C1E"/>
</svg>
