<svg width="18" height="17" viewBox="0 0 18 17" fill="none" xmlns="http://www.w3.org/2000/svg">
<path d="M3.67383 16.8721H14.3174C16.2158 16.8721 17.2002 15.8877 17.2002 14.0156V3.31934C17.2002 1.43848 16.2158 0.462891 14.3174 0.462891H3.67383C1.77539 0.462891 0.791016 1.43848 0.791016 3.31934V14.0156C0.791016 15.8965 1.77539 16.8721 3.67383 16.8721ZM5.61621 13.5059C5.36133 13.5059 5.1416 13.2861 5.1416 13.0225V5.49023C5.1416 5.07715 5.33496 4.77832 5.73047 4.60254C6.06445 4.44434 6.35449 4.36523 7.04883 4.36523C8.68359 4.36523 9.71191 5.16504 11.2061 5.16504C11.9355 5.16504 12.3311 4.97168 12.6035 4.97168C12.999 4.97168 13.166 5.18262 13.166 5.49023V9.91113C13.166 10.3506 12.9814 10.6318 12.5771 10.8252C12.2344 10.9834 11.9355 11.0449 11.25 11.0449C9.68555 11.0449 8.68359 10.2627 7.09277 10.2627C6.5918 10.2627 6.25781 10.3594 6.08203 10.4297V13.0225C6.08203 13.2949 5.88867 13.5059 5.61621 13.5059Z" fill="#1C1C1E"/>
</svg>
