<svg width="14" height="17" viewBox="0 0 14 17" fill="none" xmlns="http://www.w3.org/2000/svg">
<path d="M1.32422 16.3711C1.69336 16.3711 2.01855 16.2393 2.42285 16.002L12.8027 9.99902C13.5586 9.55957 13.875 9.2168 13.875 8.66309C13.875 8.10938 13.5586 7.77539 12.8027 7.32715L2.42285 1.32422C2.01855 1.08691 1.69336 0.955078 1.32422 0.955078C0.603516 0.955078 0.09375 1.50879 0.09375 2.37891V14.9473C0.09375 15.8262 0.603516 16.3711 1.32422 16.3711ZM1.97461 14.1914C1.93066 14.1914 1.89551 14.1475 1.89551 14.0859V3.24023C1.89551 3.16992 1.93066 3.13477 1.97461 3.13477C2.00977 3.13477 2.04492 3.15234 2.08008 3.17871L11.4141 8.56641C11.4492 8.59277 11.4844 8.61914 11.4844 8.66309C11.4844 8.70703 11.4492 8.7334 11.4141 8.75977L2.08008 14.1475C2.04492 14.1738 2.00977 14.1914 1.97461 14.1914Z" fill="#1C1C1E"/>
</svg>
